<?xml version="1.0" encoding="utf-8"?>
<svg version="1.1" id="Layer_1" x="0px" y="0px" viewBox="0 0 729 231.5" style="enable-background:new 0 0 792 322.88;" xmlns="http://www.w3.org/2000/svg">
  <style type="text/css">
	.st0{fill-rule:evenodd;clip-rule:evenodd;fill:#1BABE2;}
	.st1{fill:#1BABE2;}
	.st2{fill:#414042;}
</style>
  <g transform="matrix(1, 0, 0, 1, -31.73, -45.799999)">
    <g>
      <path class="st0" d="M76.61,46.8h141.53c24.13,0,43.88,19.74,43.88,43.88V214.7l-0.52-0.01c-13.38,0-24.23,10.85-24.23,24.23 c0,9.73,5.73,18.11,14.01,21.97c-8.06,9.29-19.94,15.19-33.13,15.19H76.61c-24.13,0-43.88-19.74-43.88-43.88V90.68 C32.73,66.55,52.48,46.8,76.61,46.8L76.61,46.8z M54.06,252.15h146.58v-13.65H100.12L202.55,70.23H64.37v13.65h92.49L54.06,252.15 L54.06,252.15z M200.56,98.83c0,4.23,1.53,7.85,4.55,10.86c3.07,3.02,6.78,4.55,11.1,4.55c4.27,0,7.89-1.54,10.86-4.55 c2.93-3.02,4.41-6.64,4.41-10.86c0-4.37-1.49-8.08-4.5-11.05c-2.97-2.97-6.59-4.46-10.77-4.46c-4.32,0-8.03,1.53-11.1,4.55 C202.09,90.89,200.56,94.56,200.56,98.83L200.56,98.83z M202.79,132.91v119.24h26.47V132.91H202.79z"/>
      <circle class="st0" cx="262.86" cy="238.88" r="18.77"/>
      <g>
        <path class="st1" d="M449.6,200.47c-7.07,15.33-16.94,27.09-29.59,35.3c-12.65,8.21-27.36,12.31-44.14,12.31 c-24.94,0-45.66-8.93-62.16-26.79c-16.51-17.86-24.76-40.72-24.76-68.56c0-27.11,8.46-49.72,25.37-67.81 c16.91-18.09,37.88-27.14,62.91-27.14c15.23,0,28.45,3.13,39.65,9.39s20.47,15.64,27.82,28.16l-10.88,7.62 c-5.62-11.06-12.58-19.36-20.88-24.89c-8.3-5.53-17.89-8.3-28.77-8.3c-18.23,0-32.67,7.53-43.32,22.58 c-10.66,15.05-15.98,35.59-15.98,61.62c0,25.12,5.08,44.61,15.23,58.49c10.16,13.87,24.39,20.81,42.71,20.81 c12.24,0,23.1-3.38,32.58-10.13s17.21-16.66,23.19-29.72L449.6,200.47z"/>
        <path class="st1" d="M458.55,206.86l-10.61,36.73h-11.7l29.25-104.47c1.64-5.98,4.26-10.54,7.89-13.67 c3.62-3.13,8.07-4.69,13.33-4.69c5.53,0,10.34,1.75,14.42,5.24c4.08,3.49,7.07,8.41,8.98,14.76l30.61,102.83h-27.07l-10.88-36.73 H458.55z M461.27,196.52h38.76l-14.14-50.6c-0.91-2.81-1.77-4.64-2.58-5.51c-0.82-0.86-1.86-1.29-3.13-1.29 c-0.91,0-1.7,0.48-2.38,1.43c-0.68,0.95-1.43,2.79-2.25,5.51L461.27,196.52z"/>
        <path class="st1" d="M567.21,243.59h-26.53V124.3h47.88c14.87,0,26.16,2.81,33.87,8.43c7.71,5.62,11.56,13.78,11.56,24.48 c0,7.8-2.31,14.19-6.93,19.18c-4.63,4.99-11.02,7.98-19.18,8.98l30.88,58.22h-31.69l-28.43-59.58 c9.61-0.18,16.66-2.18,21.15-5.99c4.49-3.81,6.73-9.79,6.73-17.95c0-8.89-2.2-15.44-6.6-19.66c-4.4-4.21-11.22-6.32-20.47-6.32 h-12.24V243.59z"/>
        <path class="st1" d="M637.1,145.79c0-8.89,1.43-14.69,4.28-17.41c2.86-2.72,8.87-4.08,18.02-4.08h56.86v10.34h-40.67 c-4.81,0-8.01,0.68-9.59,2.04c-1.59,1.36-2.38,3.86-2.38,7.48v30.06h43.12v11.7h-43.12v37.95c0,3.63,0.82,6.1,2.45,7.41 c1.63,1.31,5.44,1.97,11.42,1.97h40.13v10.34h-62.43c-6.71,0-11.4-1.4-14.08-4.22c-2.67-2.81-4.01-8.57-4.01-17.27V145.79z"/>
      </g>
    </g>
    <g>
      <path class="st2" d="M733.04,137.43c0-1.21,0.16-2.37,0.47-3.49c0.31-1.12,0.75-2.17,1.32-3.14c0.57-0.98,1.25-1.86,2.05-2.66 c0.8-0.8,1.69-1.48,2.66-2.05c0.97-0.57,2.01-1.02,3.12-1.33c1.11-0.31,2.27-0.47,3.48-0.47c1.21,0,2.37,0.16,3.49,0.47 c1.12,0.31,2.16,0.75,3.13,1.33c0.97,0.57,1.85,1.26,2.66,2.05c0.8,0.8,1.49,1.68,2.06,2.66c0.57,0.98,1.01,2.02,1.32,3.14 c0.31,1.12,0.47,2.28,0.47,3.49c0,1.2-0.16,2.35-0.47,3.47c-0.31,1.12-0.75,2.16-1.32,3.13c-0.57,0.97-1.25,1.85-2.06,2.65 c-0.8,0.8-1.69,1.48-2.66,2.05s-2.01,1.02-3.13,1.33c-1.12,0.31-2.28,0.47-3.49,0.47c-1.21,0-2.37-0.16-3.48-0.47 c-1.11-0.31-2.15-0.75-3.12-1.33c-0.97-0.57-1.85-1.26-2.66-2.05c-0.8-0.8-1.49-1.68-2.05-2.65c-0.57-0.97-1.01-2.01-1.32-3.12 C733.2,139.8,733.04,138.64,733.04,137.43z M734.84,137.43c0,1.06,0.13,2.09,0.39,3.07c0.26,0.98,0.64,1.9,1.13,2.75 c0.49,0.86,1.08,1.63,1.76,2.32c0.68,0.69,1.44,1.29,2.28,1.79c0.84,0.5,1.74,0.88,2.71,1.15c0.97,0.27,1.98,0.4,3.03,0.4 c1.58,0,3.06-0.3,4.44-0.9c1.38-0.6,2.58-1.41,3.61-2.45c1.02-1.03,1.83-2.25,2.42-3.64c0.59-1.39,0.89-2.89,0.89-4.5 c0-1.06-0.13-2.09-0.4-3.09c-0.27-0.99-0.65-1.92-1.14-2.77c-0.49-0.86-1.08-1.64-1.77-2.34c-0.69-0.71-1.45-1.31-2.29-1.8 c-0.84-0.5-1.74-0.88-2.72-1.16c-0.98-0.28-1.99-0.41-3.04-0.41c-1.58,0-3.06,0.3-4.43,0.91c-1.38,0.6-2.57,1.43-3.59,2.48 c-1.02,1.05-1.82,2.27-2.4,3.68C735.13,134.33,734.84,135.83,734.84,137.43z M743.56,139.05v6.35h-2.8v-16.01h5.17 c2.06,0,3.58,0.37,4.58,1.12c0.99,0.75,1.49,1.85,1.49,3.31c0,1.12-0.32,2.08-0.96,2.87c-0.64,0.79-1.59,1.33-2.86,1.63 c0.2,0.12,0.38,0.27,0.53,0.45c0.15,0.18,0.29,0.39,0.42,0.63l4.09,5.99h-2.66c-0.39,0-0.69-0.15-0.88-0.45l-3.61-5.42 c-0.11-0.16-0.24-0.28-0.39-0.36c-0.15-0.08-0.38-0.13-0.69-0.13H743.56z M743.56,137h2.08c0.66,0,1.22-0.06,1.68-0.19 c0.46-0.13,0.83-0.31,1.11-0.55c0.28-0.24,0.48-0.53,0.61-0.88c0.13-0.35,0.19-0.75,0.19-1.2c0-0.44-0.06-0.83-0.17-1.17 c-0.11-0.33-0.3-0.61-0.56-0.83c-0.26-0.22-0.6-0.38-1.01-0.48c-0.42-0.11-0.94-0.16-1.56-0.16h-2.37V137z"/>
    </g>
  </g>
</svg>